<?xml version="1.0" encoding="UTF-8"?>
<svg width="1270px" height="722px" viewBox="0 0 1270 722" version="1.1" xmlns="http://www.w3.org/2000/svg" xmlns:xlink="http://www.w3.org/1999/xlink">
    <title>Path lel</title>
    <g id="Page-1" stroke="none" stroke-width="1" fill="none" fill-rule="evenodd">
        <g id="dashboard-desktop-darktheme" transform="translate(0.000000, -35.000000)" fill="#EEF4F6">
            <path d="M2226.24219,471.215525 C1786.36249,471.215525 1840.30164,85.669515 1586.2866,85.669515 C1409.11332,85.669515 1349.17188,61.909515 1210,192.989515 C1167.35625,233.15383 1102.00468,384.489515 974.55982,384.489515 C836.296296,384.489515 755.237893,320.127329 686.767499,251.080779 C667.4934,231.644495 649.216771,211.837024 630.9424,192.989515 C595.903439,156.851629 557.788217,128.959902 519.92,99.1910775 C433.916745,31.5825125 281.983393,35.029515 194.749188,35.029515 C-22.0929178,35.029515 -76.9398496,227.067525 -269,227.067525 L-245.757812,756.089515 L2226.24219,756.08949 L2226.24219,471.215525 Z" id="Path-lel" transform="translate(978.621094, 395.544757) scale(1, -1) translate(-978.621094, -395.544757) "></path>
        </g>
    </g>
</svg>